<svg xmlns="http://www.w3.org/2000/svg" xmlns:xlink="http://www.w3.org/1999/xlink" width="404.268" height="80.82" viewBox="0 0 404.268 80.82">
  <defs>
    <linearGradient id="linear-gradient" x1="0.5" y1="-0.705" x2="0.5" y2="1.366" gradientUnits="objectBoundingBox">
      <stop offset="0.038" stop-color="#13778b"/>
      <stop offset="0.716" stop-color="#072835"/>
      <stop offset="0.745" stop-color="#062532"/>
      <stop offset="1" stop-color="#04151f"/>
    </linearGradient>
    <linearGradient id="linear-gradient-2" x1="0.5" y1="-0.864" x2="0.5" y2="1.566" xlink:href="#linear-gradient"/>
  </defs>
  <g id="Group_58171" data-name="Group 58171" transform="translate(-39.111 -29.369)">
    <path id="Path_12361" data-name="Path 12361" d="M173.6,97.066l-3.494-1.837c-3.315-1.051-6.474-2.456-9.927-3.15a.568.568,0,0,1-.445-.51c-1.212-8.6-2.819-17.172-4-25.772-.941-6.979-.354-14.036-1.272-21-.67-.032-1.332-.06-2.006-.087a12.349,12.349,0,0,0-4.793,6.942,67.278,67.278,0,0,0-1.543,12.874c-.161,3.788.473,8.007-.96,11.658-1.368,3.48-4.3,5.363-8.232,6.359a.615.615,0,0,1-.735-.367A105.427,105.427,0,0,1,130.678,43.7c.037-1.2.152-2.475.266-3.774a62.316,62.316,0,0,0-2.971-10.491c-2.677-.188-5.377.1-8.067.06a42.24,42.24,0,0,0-3.476,7.25,17.524,17.524,0,0,1-.147,2.31c-.069.4-.119.808-.179,1.212-.032.17-.055.34-.078.51-.028.207-.055.422-.092.638l.009.046c-.028.216-.06.432-.078.647-.188,2.14-.188,4.445-.275,6.625-.087,2.222-.174,4.449-.271,6.662-.174,4.054-.367,8.1-.523,12.163v-.009c-.009.115-.009.211-.018.331a11.384,11.384,0,0,1-.556,3.659c-.092.216-.179.427-.285.643a1.264,1.264,0,0,1-.083.179,12.849,12.849,0,0,1-1.038,1.749c-.542.808-1.065,1.607-1.589,2.521l-.422.725c-.1.17-.2.335-.308.5-.119.2-.243.386-.367.565-.147,1.006-.3,2.016-.45,3.03l-5.5-.161s-.17.028-.482.069c-.234-.588-.482-1.171-.712-1.763a16.373,16.373,0,0,1-.624-1.579,12.955,12.955,0,0,1-.335-1.855c-.349-2.782-.436-5.588-.634-8.4-.014-.266-.046-.537-.064-.794v.051c-.092-1.157-.211-2.319-.308-3.476-.115-1.4-.115-2.81-.161-4.206-.028-.712-.028-1.419-.028-2.117a4.446,4.446,0,0,0-.142-1.524l.009-.018a1.7,1.7,0,0,0-.064-.179c-.11-.225-.239-.441-.34-.675-.142-.321-.239-.7-.363-1.038a7.263,7.263,0,0,0-.73-1.662,2.472,2.472,0,0,0-.248-.294.809.809,0,0,1-.188-.207,3.527,3.527,0,0,1-.321-1.093c-.06-.363-.051-.7-.119-1.061a9.886,9.886,0,0,0-.3-1c-.1-.312-.174-.643-.3-.95s-.248-.611-.372-.914c-.041-.115-.078-.234-.124-.34a3.867,3.867,0,0,1-.647.064.9.9,0,0,1-.537-.119c-.156-.133-.321-.528-.5-.565-.188-.055-.294.124-.459.161a1.844,1.844,0,0,1-.39,0,11.028,11.028,0,0,0-1.111.064c-.744.087-1.483.234-2.227.294-1.557.129-3.1.046-4.647.2a17.459,17.459,0,0,0-2.746.666,1.97,1.97,0,0,0-.22.331c-.248.441-.129.978-.312,1.428-.055.133-.294.248-.395.331-.124.106-.248.225-.372.34-.023.028-.06.055-.087.092-.294.275-.579.606-.877.868a2.814,2.814,0,0,0-.735.707.992.992,0,0,0-.106.317h0v.009l-.018.1a2.154,2.154,0,0,0-.023.253c-.009.1-.018.2-.018.3,0,.037-.014.073-.014.119a1.67,1.67,0,0,1-.06.331c-.193.565-.689.817-.849,1.373v-.009a.269.269,0,0,0-.018.087.39.39,0,0,0-.018.1,1.575,1.575,0,0,0-.014.294c0,.046,0,.064-.032.073a8.172,8.172,0,0,1-.193,2.126c-.078.257-.152.519-.22.781-.041.106-.069.234-.1.349-.032.133-.073.266-.11.4l.014.037a2.259,2.259,0,0,0-.064.266c-.808.055-1.612.142-2.424.179-1.887.092-3.779.037-5.666.152a32.508,32.508,0,0,0-3.352.459c-.092.083-.179.152-.271.243-.285.312-.152.707-.372,1.019h0c-.064.1-.367.184-.468.234-.161.083-.317.161-.468.253h0l-.1.055c-.363.207-.7.436-1.074.624a3.582,3.582,0,0,0-.9.514.664.664,0,0,0-.133.225h0V62.4l-.009.041c-.014.064-.028.138-.037.207a1.347,1.347,0,0,0-.014.188l-.018.11a.6.6,0,0,1-.083.23c-.23.4-.826.592-1.024.987l-.009-.009-.018.055a.384.384,0,0,0-.037.092.576.576,0,0,0,0,.2.046.046,0,0,1-.032.046,3.477,3.477,0,0,1-.239,1.524c-.1.179-.184.367-.28.546-.037.092-.069.179-.106.253-.051.11-.1.2-.138.3l.009.023c-.032.1-.087.2-.119.3a21.442,21.442,0,0,0-.413,3.1c-.124,1.038-.262,2.08-.409,3.118-.266,1.892-.546,3.788-.785,5.689h0c0,.041-.009.1-.014.152a2.422,2.422,0,0,1-.84,1.713,5.723,5.723,0,0,1-.583.4,12.806,12.806,0,0,1-1.511.808c-.822.367-1.612.744-2.4,1.171-.211.119-.418.225-.638.344-.147.078-.3.142-.441.22-.193.092-.372.179-.556.271a32.124,32.124,0,0,0-1.951,4.734,5.758,5.758,0,0,0-1.4.395c-1.63,1.093-10.693,15.211-10.693,15.211l1.134,5.363H185.376Z" transform="translate(0 0)" opacity="0.8" fill="url(#linear-gradient)" style="mix-blend-mode: multiply;isolation: isolate"/>
    <path id="Path_12362" data-name="Path 12362" d="M239.158,97.277,230.93,82.093,221.3,77.029h.22c-.037-.693-.147-1.419-.243-2.057a8.788,8.788,0,0,1-.115-1.4V72.534a15.3,15.3,0,0,1-.4-1.478c-.032-.133-.069-.271-.1-.4v-.018h0c-.225-.868-.45-1.74-.657-2.626-.119-.468-.257-.9-.349-1.391-.1-.519-.138-1.084-.184-1.63-.2-2.461-.243-4.936-.354-7.411,0-.23-.018-.464-.032-.707v.055q-.09-1.55-.179-3.076c-.055-1.231-.055-2.475-.083-3.714-.014-.615-.014-1.235-.014-1.864a6.909,6.909,0,0,0-.078-1.336l0-.009a1.052,1.052,0,0,0-.046-.161c-.05-.207-.119-.395-.174-.6-.083-.285-.133-.611-.2-.914a8.783,8.783,0,0,0-.4-1.465,1.05,1.05,0,0,0-.083-.161c-.037-.06-.078-.124-.124-.2l-.037-.087a3.71,3.71,0,0,1-.17-.969c-.037-.312-.023-.62-.078-.923-.037-.308-.106-.592-.156-.882s-.1-.583-.174-.84-.133-.537-.193-.808c-.023-.1-.06-.207-.073-.3a.9.9,0,0,1-.363.051.332.332,0,0,1-.3-.087c-.087-.129-.17-.478-.271-.514s-.161.119-.262.156a1.082,1.082,0,0,1-.211,0,3.44,3.44,0,0,0-.615.051c-.413.083-.817.207-1.235.262-.859.106-1.708.037-2.567.179a6.535,6.535,0,0,0-1.511.574,1.716,1.716,0,0,0-.124.294c-.133.386-.078.863-.174,1.258-.023.124-.165.225-.211.294-.073.1-.138.2-.211.308h0l-.051.06c-.161.262-.312.56-.482.781a2.259,2.259,0,0,0-.409.629,1.046,1.046,0,0,0-.06.28v.009l-.009.078c0,.073-.009.142-.009.225l-.009.262-.009.106c-.009.1-.014.2-.032.289-.106.51-.381.725-.473,1.208h0l-.009.092-.018.078v.253c0,.046,0,.064-.018.073a10.564,10.564,0,0,1-.11,1.873c-.041.234-.078.464-.119.7-.018.092-.032.188-.046.28-.023.124-.041.248-.064.377l0,.037a2.449,2.449,0,0,0-.06.367c-.119,1.235-.133,2.562-.184,3.829s-.119,2.562-.188,3.838c-.115,2.337-.243,4.679-.358,7.02h0c0,.064,0,.133-.009.188a5.9,5.9,0,0,1-.372,2.107c-.06.133-.129.262-.193.377a1.166,1.166,0,0,0-.055.106,7.707,7.707,0,0,1-.7,1.015c-.037.037-.064.083-.1.124-.142-.652-.28-1.309-.418-1.97-.119-.556-.271-1.088-.354-1.68-.1-.634-.152-1.318-.193-1.979-.2-2.971-.253-5.964-.358-8.949-.014-.289-.023-.574-.041-.863v.064c-.055-1.24-.115-2.475-.165-3.714-.073-1.488-.073-2.984-.1-4.481-.018-.753-.018-1.511-.018-2.264a9.242,9.242,0,0,0-.073-1.621l0-.018-.041-.188c-.064-.243-.133-.468-.2-.716-.069-.349-.129-.744-.193-1.111a11.6,11.6,0,0,0-.427-1.768.883.883,0,0,0-.078-.2,1.387,1.387,0,0,1-.115-.234h0a.765.765,0,0,0-.055-.106,7.126,7.126,0,0,1-.174-1.175c-.037-.376-.028-.744-.069-1.12s-.115-.712-.165-1.051c-.069-.349-.106-.7-.17-1.033s-.147-.643-.207-.964c-.032-.129-.055-.243-.078-.372a1.1,1.1,0,0,1-.377.073.326.326,0,0,1-.3-.124c-.092-.147-.188-.565-.285-.6-.11-.055-.17.133-.262.17a.593.593,0,0,1-.22,0,2.94,2.94,0,0,0-.629.073c-.418.087-.845.248-1.263.312-.886.133-1.754.037-2.64.216a5.994,5.994,0,0,0-1.556.7c-.041.11-.083.225-.124.349-.142.468-.073,1.051-.179,1.524-.032.156-.174.271-.22.354-.069.124-.147.239-.216.367l-.05.087c-.165.308-.321.666-.5.932a2.881,2.881,0,0,0-.413.762,1.276,1.276,0,0,0-.064.335v.106a2.675,2.675,0,0,0-.018.271c-.009.106-.009.211-.014.321a.546.546,0,0,1-.009.124,2.2,2.2,0,0,1-.037.358c-.11.611-.39.872-.473,1.455l0-.009a.823.823,0,0,0-.014.106.876.876,0,0,0,0,.11,2.107,2.107,0,0,0-.014.3c0,.046,0,.083-.014.092a17.388,17.388,0,0,1-.115,2.259c-.041.275-.083.565-.129.84-.014.119-.032.234-.041.363s-.055.285-.069.436v.037c-.018.152-.037.3-.05.45-.138,1.5-.138,3.1-.188,4.628-.069,1.547-.124,3.1-.2,4.642-.129,2.833-.253,5.652-.363,8.485h0a1.989,1.989,0,0,1-.009.234,7.9,7.9,0,0,1-.39,2.544c-.064.165-.133.317-.193.459-.023.037-.041.083-.064.124a8.4,8.4,0,0,1-.721,1.221c-.376.565-.753,1.13-1.107,1.768-.106.17-.2.34-.3.5-.073.119-.142.234-.22.349l-.243.386c-.11.7-.216,1.41-.312,2.117l-3.834-.106s-.124.009-.354.037c-.161-.395-.331-.808-.487-1.231a10.787,10.787,0,0,1-.436-1.1,8.85,8.85,0,0,1-.239-1.295c-.239-1.933-.308-3.9-.441-5.854-.014-.188-.028-.377-.046-.556v.037c-.06-.808-.138-1.625-.211-2.429-.078-.978-.083-1.956-.115-2.943-.014-.487-.014-.987-.014-1.469a3.243,3.243,0,0,0-.1-1.07h.009c-.023-.046-.032-.087-.055-.124-.073-.161-.156-.317-.23-.478-.106-.23-.17-.491-.257-.725a5.084,5.084,0,0,0-.5-1.157,1.591,1.591,0,0,0-.184-.207.5.5,0,0,1-.124-.152,2.348,2.348,0,0,1-.23-.762c-.037-.243-.028-.482-.078-.735s-.138-.468-.2-.693c-.083-.22-.129-.455-.22-.67s-.165-.422-.257-.638l-.083-.23a2.164,2.164,0,0,1-.455.032c-.11,0-.28.018-.372-.069-.11-.1-.23-.376-.349-.4s-.211.1-.326.115a.924.924,0,0,1-.276,0,7.4,7.4,0,0,0-.776.046c-.51.073-1.033.161-1.557.207-1.07.083-2.158.028-3.242.142a11.487,11.487,0,0,0-1.915.459,2.29,2.29,0,0,0-.151.234c-.161.3-.1.68-.22.983-.037.11-.207.179-.271.243a3.221,3.221,0,0,0-.257.243l-.064.055c-.2.2-.4.427-.615.606a1.97,1.97,0,0,0-.51.505.6.6,0,0,0-.078.216h0l0,.069-.014.17c0,.083-.018.147-.018.216a.254.254,0,0,1-.009.083.761.761,0,0,1-.051.225c-.119.409-.478.583-.583.96h-.009l-.014.06-.009.073a1,1,0,0,0-.014.207.04.04,0,0,1-.014.055,5.634,5.634,0,0,1-.138,1.478c-.051.179-.1.367-.161.546l-.055.234c-.023.1-.055.2-.078.294v.028c-.009.055-.028.115-.037.179-.565.046-1.129.1-1.694.129-1.318.06-2.64.014-3.953.1-.79.055-1.566.207-2.337.331a2.245,2.245,0,0,0-.188.17c-.207.216-.11.487-.262.712h0a1.437,1.437,0,0,1-.326.161l-.331.17-.064.046c-.262.142-.5.3-.753.427a2.163,2.163,0,0,0-.62.363.326.326,0,0,0-.1.161h0l0,.037a.615.615,0,0,0-.023.142,1.134,1.134,0,0,0-.009.133.14.14,0,0,0-.014.073.677.677,0,0,1-.06.161c-.161.285-.583.413-.716.689v-.009l-.018.046-.023.055a.539.539,0,0,0-.009.152l-.018.028a2.645,2.645,0,0,1-.165,1.065c-.073.129-.129.262-.2.386-.028.055-.046.119-.073.17-.028.073-.064.138-.092.207l0,.009a1.09,1.09,0,0,0-.078.225,13.6,13.6,0,0,0-.289,2.163c-.092.725-.188,1.442-.285,2.176-.184,1.318-.39,2.64-.551,3.967v-.009l-.009.115a1.621,1.621,0,0,1-.592,1.194,4.593,4.593,0,0,1-.409.285,7.825,7.825,0,0,1-1.047.556c-.28.119-.56.253-.831.386-.023-.22-.041-.464-.064-.707-.156-1.318-.395-2.626-.574-3.953-.174-1.309-.174-2.626-.257-3.939-.037-.67-.037-1.327-.037-1.988a2.364,2.364,0,0,0-.312-1.607c-.161-.216-.349-.4-.51-.629a9.3,9.3,0,0,1-.556-.973,6.309,6.309,0,0,0-1.13-1.552,1.454,1.454,0,0,0-.234-.17c-.106-.073-.216-.138-.321-.207a1.374,1.374,0,0,1-.119-.1,2.377,2.377,0,0,1-.5-1.024c-.083-.331-.064-.652-.179-.983a6.994,6.994,0,0,0-.455-.932,9.366,9.366,0,0,0-.473-.9c-.193-.275-.376-.565-.56-.859-.073-.1-.124-.207-.2-.317a9.039,9.039,0,0,1-1.006.055,2.1,2.1,0,0,1-.813-.1c-.253-.138-.505-.5-.781-.542-.294-.032-.45.129-.716.156a3.7,3.7,0,0,1-.6,0c-.574,0-1.143.023-1.713.06-1.143.092-2.286.225-3.434.28-2.383.115-4.775.037-7.163.2a36.075,36.075,0,0,0-4.229.611,1.961,1.961,0,0,0-.344.3c-.372.413-.2.914-.482,1.336l-.014.018a.207.207,0,0,1-.1.073,3.718,3.718,0,0,1-.491.22c-.193.11-.39.216-.579.326h0a.732.732,0,0,1-.133.069c-.455.28-.882.583-1.359.826a3.92,3.92,0,0,0-1.125.666.958.958,0,0,0-.174.294h0a1.51,1.51,0,0,0-.046.243l0,.041-.023.243c0,.073-.014.147-.023.225l-.014.055c-.028.078-.051.152-.083.225-.289.528-1.056.771-1.309,1.281l-.009-.009a.436.436,0,0,1-.028.092.5.5,0,0,0-.028.106.858.858,0,0,0-.014.271.069.069,0,0,1-.051.06,4.682,4.682,0,0,1-.308,1.993c-.1.243-.225.491-.34.735s-.216.464-.3.689l0,.018h0a2.881,2.881,0,0,0-.147.422,28.4,28.4,0,0,0-.528,4.073c-.161,1.364-.326,2.718-.51,4.077-.34,2.479-.693,4.959-1,7.452v0a1.357,1.357,0,0,1-.023.2,3.121,3.121,0,0,1-1.056,2.236c-.174.142-.349.266-.528.395l-.184.133a14.943,14.943,0,0,1-1.942,1.056c-1.033.505-2.039.987-3.035,1.552-.262.156-.528.3-.8.45-.193.092-.372.188-.56.289-.225.115-.464.23-.707.349l-7.548,13.54h65.35Z" transform="translate(204.221 11.397)" opacity="0.8" fill="url(#linear-gradient-2)" style="mix-blend-mode: multiply;isolation: isolate"/>
  </g>
</svg>
